Coordinates
version=1
nRows=18
nColumns=33
inDegrees=yes

Units are S.I. units (second, meters, Newtons, ...)
Angles are in degrees.

endheader
time	ground_thorax_rot_x	ground_thorax_rot_y	ground_thorax_rot_z	ground_thorax_tx	ground_thorax_ty	ground_thorax_tz	clav_prot_r	clav_elev_r	scapula_abduction_r	scapula_elevation_r	scapula_upward_rot_r	scapula_winging_r	shoulder_elv_r	plane_of_elev_r	axial_rot_r	elbow_flexion_r	pro_sup_r	wrist_flex_r	wrist_dev_r	clav_prot_l	clav_elev_l	scapula_abduction_l	scapula_elevation_l	scapula_upward_rot_l	scapula_winging_l	shoulder_elv_l	plane_of_elev_l	axial_rot_l	elbow_flexion_l	pro_sup_l	wrist_flex_l	wrist_dev_l	
1.3000	-4.411882	-8.630727	90.000000	-0.000555	0.964258	0.021441	29.703896	20.481748	45.000000	45.000000	-43.475336	-6.017242	14.296044	-77.929233	28.268823	82.708539	35.636018	33.050330	-5.835266	28.698064	21.195719	-45.000000	-45.000000	-45.000000	5.698559	16.853048	-89.962205	-6.105957	81.292118	29.268868	-2.761613	-24.812574	
1.3100	-4.526431	-8.674015	90.000000	0.000118	0.963817	0.021447	29.639078	20.370858	45.000000	45.000000	-43.708575	-5.984275	14.409493	-77.047533	27.770491	83.778235	34.774605	30.954553	-3.611895	28.697913	21.195841	-45.000000	-45.000000	-45.000000	5.701139	20.657034	-89.932179	-9.539484	82.219956	28.258841	0.157371	-24.665328	
1.3200	-4.701039	-8.720583	90.000000	0.000859	0.963312	0.021471	29.553547	20.224700	45.000000	45.000000	-44.016059	-5.940182	14.180599	-76.055854	26.867653	84.743357	33.957348	28.851356	-1.279260	28.697771	21.195953	-45.000000	-45.000000	-45.000000	5.703766	24.664976	-89.878845	-13.147695	83.120819	27.290125	3.031610	-24.397544	
1.3300	-4.937058	-8.783081	90.000000	0.001711	0.962735	0.021510	29.471475	20.084605	45.000000	45.000000	-44.310881	-5.897455	13.521341	-74.952262	25.561631	85.519370	33.262562	26.900766	1.011089	28.697661	21.196044	-45.000000	-45.000000	-45.000000	5.706136	28.587868	-89.782051	-16.641591	84.002183	26.422511	5.619038	-23.929095	
1.3400	-5.241295	-8.833946	90.000000	0.002637	0.962103	0.021591	29.390491	19.946572	45.000000	45.000000	-44.601473	-5.854765	12.395912	-73.760296	23.793196	86.092361	32.656363	25.118572	3.319709	28.697570	21.196154	-45.000000	-45.000000	-45.000000	5.708490	32.613586	-89.612176	-20.240087	84.865351	25.551973	8.051313	-23.098703	
1.3500	-5.584195	-8.869767	90.000000	0.003637	0.961429	0.021713	29.336215	19.854181	45.000000	45.000000	-44.796103	-5.825607	10.864418	-72.502262	21.708793	86.434375	32.155284	23.462628	5.561132	28.697468	21.196270	-45.000000	-45.000000	-45.000000	5.710791	36.400152	-89.298237	-23.630869	85.667203	24.693791	10.238642	-21.904499	
1.3600	-5.934616	-8.875232	90.000000	0.004662	0.960754	0.021869	29.300856	19.794218	45.000000	45.000000	-44.922591	-5.805923	9.089655	-71.196003	19.428763	86.573315	31.705854	21.875433	7.737079	28.697366	21.196393	-45.000000	-45.000000	-45.000000	5.712967	39.744670	-88.762957	-26.641455	86.344839	23.793150	12.280952	-20.357566	
1.3700	-6.243540	-8.867838	90.000000	0.005703	0.960107	0.022024	29.287277	19.771249	45.000000	45.000000	-44.971074	-5.797284	7.332275	-69.834213	17.231682	86.527238	31.287139	20.267127	9.783341	28.697244	21.196482	-45.000000	-45.000000	-45.000000	5.714832	42.123870	-87.943354	-28.752604	86.822476	22.879716	14.145633	-18.608425	
1.3800	-6.498045	-8.847422	90.000000	0.006733	0.959513	0.022163	29.279215	19.757529	45.000000	45.000000	-44.999999	-5.791266	5.703450	-68.415289	15.157201	86.313584	30.886803	18.707542	11.729177	28.697165	21.196569	-45.000000	-45.000000	-45.000000	5.716007	43.497022	-86.828126	-29.924128	87.060774	21.935820	15.896183	-16.730306	
1.3900	-6.668257	-8.842509	90.000000	0.007762	0.958974	0.022250	29.279299	19.757502	45.000000	45.000000	-44.999999	-5.789495	4.419090	-66.922035	13.453438	85.943307	30.509730	17.157126	13.511226	28.697138	21.196612	-45.000000	-45.000000	-45.000000	5.716189	43.626697	-85.436384	-29.902511	87.022073	21.021904	17.481634	-14.923587	
1.4000	-6.763806	-8.860810	90.000000	0.008790	0.958485	0.022285	29.279421	19.757496	45.000000	45.000000	-44.999998	-5.787848	3.486869	-65.351137	12.106320	85.414662	30.169639	15.730313	15.132997	28.697203	21.196640	-45.000000	-45.000000	-45.000000	5.715214	42.759531	-83.831977	-28.919369	86.715673	20.149514	18.929102	-13.235778	
1.4100	-6.798576	-8.914160	90.000000	0.009835	0.958033	0.022267	29.279543	19.757486	45.000000	45.000000	-44.999997	-5.786319	2.879993	-63.696653	11.113244	84.717769	29.884016	14.451159	16.578470	28.697332	21.196626	-45.000000	-45.000000	-45.000000	5.713412	41.159998	-82.093154	-27.222125	86.173334	19.349725	20.223191	-11.704097	
1.4200	-6.810343	-8.980712	90.000000	0.010881	0.957605	0.022238	29.279672	19.757478	45.000000	45.000000	-44.999994	-5.784998	2.392730	-61.987177	10.265467	83.852146	29.668355	13.354393	17.937671	28.697519	21.196627	-45.000000	-45.000000	-45.000000	5.711195	39.443129	-80.290058	-25.430438	85.441846	18.602357	21.454485	-10.258150	
1.4300	-6.807534	-9.064149	90.000000	0.011934	0.957197	0.022201	29.279778	19.757476	45.000000	45.000000	-44.999990	-5.783775	1.990514	-60.226617	9.546829	82.826798	29.532716	12.372712	19.161876	28.697740	21.196618	-45.000000	-45.000000	-45.000000	5.708817	37.707357	-78.453387	-23.639809	84.542390	17.945127	22.565128	-8.915300	
1.4400	-6.805428	-9.157506	90.000000	0.012990	0.956812	0.022178	29.279881	19.757469	45.000000	45.000000	-44.999981	-5.782666	1.605131	-58.430067	8.893840	81.651657	29.479640	11.481961	20.236331	28.697966	21.196594	-45.000000	-45.000000	-45.000000	5.706368	36.053002	-76.597427	-21.947336	83.490121	17.406478	23.535371	-7.680906	
1.4500	-6.811474	-9.254521	90.000000	0.014048	0.956450	0.022182	29.279987	19.757469	45.000000	45.000000	-44.999966	-5.781455	1.193597	-56.612960	8.255318	80.338023	29.505516	10.674806	21.178533	28.698164	21.196563	-45.000000	-45.000000	-45.000000	5.704127	34.517951	-74.728122	-20.385091	82.299134	16.990198	24.383645	-6.542835	
1.4600	-6.833500	-9.348122	90.000000	0.015103	0.956120	0.022222	29.280086	19.757452	45.000000	45.000000	-44.999940	-5.780151	0.714424	-54.789115	7.581623	78.891966	29.601833	9.947050	21.987157	28.698318	21.196521	-45.000000	-45.000000	-45.000000	5.701779	33.114400	-72.847618	-18.957780	80.975886	16.707228	25.118866	-5.504546	
1.4700	-6.864693	-9.437733	90.000000	0.016150	0.955824	0.022291	29.280214	19.757444	45.000000	45.000000	-44.999892	-5.778746	0.186298	-52.968106	6.877557	77.328104	29.759447	9.288170	22.703523	28.698461	21.196500	-45.000000	-45.000000	-45.000000	5.699433	31.797939	-70.954966	-17.619047	79.527362	16.541697	25.786303	-4.538326	
